PathFileType   4   (X/Y/Z)
DataRate	CameraRate	NumFrames	NumMarkers	Units	OrigDataRate	OrigDataStartFrame	OrigNumFrames
120.0	120.0	10	37	mm	120.0	116	184
Frame#	Time	midhip	hip_r	hip_l	knee_r	knee_l	ankle_r	ankle_l	midasis	asis_r	asis_l	psis_r	psis_l	epicondLat_r	epicondLat_l	epicondMed_r	epicondMed_l	malleolusLat_r	malleolusLat_l	malleolusMedv_r	malleolusMedv_l	neck	subclavicle_r	subclavicle_l	sternalnotch	xyphoidprocess	thighwand_r	thighwand_l	upperleg1_r	upperleg1_l	upperleg2_r	upperleg2_l	shankwand_r	shankwand_l	lowerleg1_r	lowerleg1_l	toe_r	toe_l
 	 	X1	Y1	Z1	X2	Y2	Z2	X3	Y3	Z3	X4	Y4	Z4	X5	Y5	Z5	X6	Y6	Z6	X7	Y7	Z7	X8	Y8	Z8	X9	Y9	Z9	X10	Y10	Z10	X11	Y11	Z11	X12	Y12	Z12	X13	Y13	Z13	X14	Y14	Z14	X15	Y15	Z15	X16	Y16	Z16	X17	Y17	Z17	X18	Y18	Z18	X19	Y19	Z19	X20	Y20	Z20	X21	Y21	Z21	X22	Y22	Z22	X23	Y23	Z23	X24	Y24	Z24	X25	Y25	Z25	X26	Y26	Z26	X27	Y27	Z27	X28	Y28	Z28	X29	Y29	Z29	X30	Y30	Z30	X31	Y31	Z31	X32	Y32	Z32	X33	Y33	Z33	X34	Y34	Z34	X35	Y35	Z35	X36	Y36	Z36	X37	Y37	Z37

	116	1.16667	-415.897	745.839	271.079	-431.465	748.953	329.687	-425.031	740.098	199.832	-390.114	411.927	297.543	-395.130	416.361	166.621	-375.167	66.354	268.594	-646.977	180.576	184.583	-356.134	811.542	263.763	-361.114	818.395	364.272	-351.154	804.688	163.254	-514.441	858.122	284.791	-511.966	851.644	230.278	-395.119	406.118	352.005	-403.775	421.061	113.017	-381.373	420.228	257.306	-383.268	382.385	210.044	-388.585	62.855	303.436	-655.293	186.753	149.063	-370.563	75.077	245.877	-642.588	181.611	214.288	-501.155	1219.167	242.756	-398.508	1163.180	302.004	-387.061	1167.984	227.140	-407.041	1163.864	260.868	-375.619	1082.823	262.909	-311.016	537.321	429.290	-257.169	549.755	148.946	-389.367	585.482	394.576	-337.297	601.954	129.115	-377.704	502.804	373.258	-338.829	514.650	126.543	-419.174	168.313	387.111	-563.301	259.651	65.155	-401.802	142.009	312.203	-592.183	241.962	141.435	-281.793	41.127	293.735	-647.598	72.805	186.881
	117	1.17500	-411.175	746.289	271.475	-427.297	749.248	330.130	-420.176	740.561	200.299	-388.047	412.009	297.813	-383.423	417.490	166.410	-374.960	66.314	268.685	-635.347	182.328	182.533	-351.710	812.020	264.674	-357.224	818.747	365.202	-346.196	805.294	164.146	-510.035	858.329	284.934	-507.328	851.910	230.388	-393.673	406.142	352.209	-391.791	422.165	112.760	-379.996	420.318	257.669	-371.498	383.059	209.951	-388.619	62.869	303.439	-642.926	187.994	146.764	-370.486	75.039	245.917	-630.686	183.862	212.293	-495.859	1219.647	243.486	-393.317	1163.456	302.617	-381.979	1168.208	227.864	-401.914	1164.147	261.556	-370.679	1083.033	263.574	-309.562	536.786	430.520	-248.421	553.184	150.081	-387.055	585.500	395.088	-329.362	603.804	129.697	-376.234	502.695	373.752	-329.094	516.164	126.985	-419.138	168.437	387.065	-549.305	259.561	63.605	-401.477	142.122	312.401	-579.729	242.882	139.551	-281.802	41.038	293.822	-631.758	74.919	184.418
	118	1.18333	-406.795	746.608	271.347	-423.137	749.530	330.520	-415.369	741.033	200.714	-385.933	412.087	298.012	-371.887	418.788	166.479	-374.726	66.283	268.730	-623.253	183.407	180.481	-347.305	812.483	265.523	-353.323	819.066	366.091	-341.287	805.901	164.955	-505.708	858.576	285.052	-502.997	852.266	230.458	-392.205	406.163	352.331	-379.943	423.406	112.776	-377.508	420.628	257.704	-359.960	384.060	210.361	-388.616	62.897	303.397	-630.146	188.627	144.505	-370.369	75.006	245.915	-618.155	185.413	210.241	-490.666	1220.185	244.227	-388.193	1163.754	303.225	-376.904	1168.437	228.493	-396.821	1164.445	262.186	-365.796	1083.252	264.221	-308.169	536.224	431.690	-239.828	556.661	151.452	-384.810	585.414	395.565	-321.623	605.670	130.383	-374.387	502.625	374.088	-319.564	517.903	127.698	-419.040	168.569	386.970	-535.161	259.372	62.193	-401.089	142.224	312.538	-567.118	243.518	137.866	-281.781	40.924	293.876	-614.893	76.712	181.780
	119	1.19167	-403.110	746.416	271.173	-418.993	749.799	330.848	-410.618	741.519	201.066	-383.789	412.165	298.148	-360.558	420.220	166.792	-374.458	66.261	268.721	-610.718	183.839	178.417	-342.908	812.915	266.305	-349.402	819.335	366.937	-336.414	806.494	165.674	-501.441	858.866	285.140	-498.721	852.697	230.512	-390.706	406.191	352.383	-368.255	424.755	113.029	-374.153	420.843	257.844	-348.782	385.479	211.187	-388.567	62.938	303.307	-616.963	188.670	142.269	-370.228	74.967	245.850	-605.318	186.367	208.172	-485.508	1220.735	244.932	-383.124	1164.045	303.852	-371.904	1168.687	229.003	-391.796	1164.753	262.774	-360.985	1083.478	264.788	-306.769	535.643	432.774	-231.383	560.192	153.057	-382.586	585.380	395.853	-313.941	607.627	131.159	-372.245	502.697	374.410	-310.194	519.952	128.651	-418.867	168.707	386.834	-520.867	259.053	60.905	-400.573	142.355	312.628	-554.190	243.909	136.064	-281.728	40.785	293.890	-597.305	78.130	179.002
	120	1.20000	-399.912	745.782	271.545	-414.857	750.050	331.114	-405.899	742.023	201.355	-381.638	412.238	298.223	-349.465	421.735	167.311	-374.157	66.249	268.658	-597.712	183.613	176.340	-338.506	813.315	267.034	-345.458	819.545	367.731	-331.554	807.085	166.338	-497.180	859.190	285.213	-494.205	853.121	230.582	-389.172	406.225	352.372	-356.751	426.173	113.482	-371.052	420.991	257.936	-337.944	387.089	212.116	-388.463	62.991	303.168	-603.348	188.112	140.050	-370.050	74.929	245.718	-592.069	186.534	206.068	-480.427	1221.304	245.554	-378.118	1164.356	304.398	-366.977	1168.990	229.553	-386.838	1165.094	263.337	-356.214	1083.747	265.295	-305.297	535.054	433.755	-223.084	563.773	154.888	-380.303	585.418	395.991	-306.259	609.690	132.031	-370.174	502.742	374.609	-300.912	522.090	129.730	-418.609	168.854	386.656	-506.437	258.568	59.727	-399.982	142.494	312.684	-540.709	243.820	134.218	-281.643	40.620	293.860	-579.243	79.114	176.106
	121	1.20833	-396.405	745.580	272.162	-410.701	750.275	331.328	-401.164	742.562	201.591	-379.481	412.291	298.236	-338.623	423.293	168.005	-373.820	66.240	268.542	-584.255	182.733	174.261	-334.073	813.703	267.742	-341.478	819.691	368.469	-326.668	807.715	167.016	-493.065	859.568	285.292	-489.682	853.608	230.691	-387.596	406.249	352.298	-345.447	427.626	114.108	-368.070	421.234	257.790	-327.363	388.771	213.004	-388.304	63.047	302.985	-589.322	186.960	137.854	-369.814	74.909	245.548	-578.953	185.707	203.913	-475.421	1221.817	246.167	-373.182	1164.641	304.919	-362.074	1169.380	230.076	-381.922	1165.457	263.865	-351.408	1084.065	265.676	-303.728	534.455	434.622	-214.939	567.382	156.923	-377.954	585.473	396.088	-298.674	611.816	133.015	-368.083	502.692	374.629	-291.751	524.315	130.890	-418.254	169.009	386.428	-491.903	257.897	58.640	-399.997	142.337	312.006	-527.060	243.316	132.650	-281.520	40.427	293.780	-560.864	79.619	173.122
	122	1.21667	-391.641	746.442	272.678	-406.512	750.455	331.496	-396.409	743.114	201.780	-377.306	412.314	298.189	-328.052	424.865	168.855	-373.444	66.224	268.380	-570.333	181.160	172.179	-329.613	814.070	268.426	-337.458	819.771	369.152	-321.768	808.370	167.700	-488.924	859.944	285.385	-485.174	854.096	230.819	-385.972	406.250	352.162	-334.372	429.091	114.888	-365.262	421.446	257.555	-316.756	390.399	213.697	-388.092	63.099	302.759	-574.886	185.188	135.682	-369.528	74.916	245.349	-566.090	183.811	201.688	-470.455	1222.309	246.876	-368.253	1164.911	305.470	-357.199	1169.727	230.572	-377.026	1165.791	264.399	-346.632	1084.351	266.085	-302.084	533.831	435.373	-206.958	570.980	159.131	-375.607	585.429	396.187	-291.273	613.947	134.123	-366.005	502.555	374.592	-282.665	526.664	132.077	-417.819	169.158	386.145	-477.301	257.047	57.634	-401.101	141.711	309.988	-513.571	242.498	131.294	-281.357	40.201	293.644	-542.258	79.626	170.088
	123	1.22500	-385.985	747.928	272.831	-402.299	750.581	331.608	-391.651	743.647	201.913	-375.115	412.308	298.084	-317.766	426.428	169.841	-373.042	66.193	268.167	-555.992	178.930	170.117	-325.135	814.392	269.062	-333.405	819.777	369.780	-316.866	809.008	168.344	-484.614	860.261	285.505	-480.676	854.559	230.966	-384.308	406.229	351.968	-323.543	430.545	115.805	-362.761	421.560	257.287	-306.425	392.041	214.317	-387.841	63.137	302.488	-560.090	182.834	133.552	-369.238	74.843	245.052	-552.307	181.265	199.542	-465.592	1222.837	247.628	-363.355	1165.219	306.042	-352.408	1169.922	231.116	-372.191	1166.074	264.982	-341.999	1084.560	266.713	-300.377	533.178	436.009	-199.146	574.513	161.475	-373.144	585.330	396.228	-283.922	616.053	135.316	-363.967	502.355	374.499	-273.703	529.065	133.311	-417.316	169.290	385.812	-462.672	256.052	56.714	-400.484	141.677	309.642	-499.697	241.100	129.765	-281.152	39.942	293.448	-523.452	79.141	167.049
	124	1.23333	-380.659	748.895	272.925	-398.054	750.650	331.657	-386.862	744.163	201.985	-372.917	412.268	297.922	-307.764	427.962	170.930	-372.630	66.146	267.898	-541.220	176.078	168.086	-320.629	814.677	269.655	-329.320	819.715	370.359	-311.938	809.639	168.951	-480.108	860.495	285.654	-476.012	854.955	231.116	-382.605	406.185	351.719	-312.965	431.974	116.828	-360.157	421.622	256.991	-296.784	393.761	215.102	-387.559	63.161	302.168	-544.934	179.935	131.475	-368.924	74.708	244.679	-537.491	178.174	197.473	-460.802	1223.236	248.303	-358.494	1165.523	306.557	-347.682	1170.130	231.633	-367.406	1166.346	265.526	-337.322	1084.793	267.286	-298.591	532.499	436.523	-191.509	577.925	163.926	-370.525	585.240	396.161	-276.524	618.113	136.564	-361.809	502.166	374.337	-264.975	531.364	134.658	-416.737	169.406	385.436	-448.042	254.949	55.886	-399.785	141.703	309.328	-485.455	239.138	128.257	-280.907	39.660	293.195	-504.381	78.217	164.029
	125	1.24167	-376.067	749.213	272.749	-393.748	750.656	331.645	-381.996	744.657	201.999	-370.710	412.191	297.698	-298.043	429.459	172.098	-372.219	66.093	267.570	-526.066	172.709	166.103	-316.078	814.938	270.217	-325.204	819.596	370.893	-306.952	810.279	169.541	-475.628	860.674	285.806	-471.488	855.337	231.263	-380.855	406.114	351.412	-302.634	433.375	117.933	-357.229	421.528	256.703	-287.376	395.464	216.133	-387.254	63.179	301.800	-529.462	176.581	129.463	-368.592	74.514	244.244	-522.390	174.489	195.511	-456.002	1223.534	248.918	-353.630	1165.758	306.978	-342.996	1170.433	232.014	-362.640	1166.622	265.960	-332.572	1085.060	267.573	-296.700	531.789	436.901	-184.052	581.169	166.469	-368.189	585.037	395.984	-269.261	620.081	137.849	-359.585	501.919	374.123	-256.417	533.525	136.131	-416.073	169.504	385.022	-433.419	253.764	55.145	-399.162	141.696	308.971	-471.152	236.845	127.016	-280.629	39.366	292.893	-484.948	76.947	161.053
